<svg width="22" height="22" viewBox="0 0 22 22" fill="none" xmlns="http://www.w3.org/2000/svg">
<path d="M7.40002 14.6L14.6 7.40002M7.95392 7.94937L7.93978 7.93507M14.0644 14.1227L14.0503 14.1084M6.92288 3.38735L5.90497 3.44934C4.58354 3.52982 3.52982 4.58354 3.44934 5.90498L3.38735 6.92288C3.35179 7.50679 3.12182 8.06199 2.73408 8.50002L2.05814 9.26363C1.18065 10.2549 1.18065 11.7451 2.05814 12.7364L2.73408 13.5C3.12182 13.9381 3.35179 14.4933 3.38735 15.0772L3.44934 16.0951C3.52982 17.4165 4.58354 18.4702 5.90498 18.5507L6.92288 18.6127C7.50679 18.6483 8.06199 18.8782 8.50002 19.266L9.26363 19.9419C10.2549 20.8194 11.7451 20.8194 12.7364 19.9419L13.5 19.266C13.9381 18.8782 14.4933 18.6483 15.0772 18.6127L16.0951 18.5507C17.4165 18.4702 18.4702 17.4165 18.5507 16.0951L18.6127 15.0772C18.6483 14.4933 18.8782 13.9381 19.266 13.5L19.9419 12.7364C20.8194 11.7451 20.8194 10.2549 19.9419 9.26363L19.266 8.50002C18.8782 8.06199 18.6483 7.50679 18.6127 6.92288L18.5507 5.90498C18.4702 4.58354 17.4165 3.52982 16.0951 3.44934L15.0772 3.38735C14.4933 3.35179 13.9381 3.12182 13.5 2.73408L12.7364 2.05814C11.7451 1.18065 10.2549 1.18065 9.26363 2.05814L8.50002 2.73408C8.06199 3.12182 7.50679 3.35179 6.92288 3.38735Z" stroke="white" stroke-opacity="0.5" stroke-linecap="round"/>
</svg>
